<svg width="80" height="80" viewBox="0 0 80 80" fill="none" xmlns="http://www.w3.org/2000/svg">
<rect opacity="0.8" x="3" y="3" width="74" height="74" rx="37" fill="black" stroke="black" stroke-width="6"/>
<path d="M13.7625 51H16.3175V38.855C16.3175 38.1667 16.5567 37.5017 17.035 36.86C17.525 36.2067 18.1725 35.67 18.9775 35.25C19.7825 34.83 20.675 34.62 21.655 34.62C23.055 34.62 24.175 35.075 25.015 35.985C25.855 36.895 26.275 38.1258 26.275 39.6775V51H28.83V39.0475C28.83 38.3125 29.0633 37.6067 29.53 36.93C29.9967 36.2533 30.6267 35.6992 31.42 35.2675C32.2133 34.8358 33.1 34.62 34.08 34.62C35.5033 34.62 36.6408 35.0983 37.4925 36.055C38.3442 37.0117 38.77 38.3067 38.77 39.94V51H41.325V39.2225C41.325 37.0758 40.7067 35.425 39.47 34.27C38.2333 33.1033 36.6583 32.52 34.745 32.52C33.275 32.52 32.0033 32.8642 30.93 33.5525C29.8683 34.2408 28.9933 35.1567 28.305 36.3C27.885 35.1333 27.1267 34.2117 26.03 33.535C24.945 32.8583 23.6675 32.52 22.1975 32.52C19.7125 32.52 17.7525 33.5233 16.3175 35.53V33.08H13.7625V51ZM58.5499 51.56C60.2299 51.56 61.7408 51.1517 63.0824 50.335C64.4241 49.5183 65.4858 48.3925 66.2674 46.9575C67.0608 45.5225 67.4574 43.8833 67.4574 42.04C67.4574 40.2083 67.0666 38.575 66.2849 37.14C65.5033 35.705 64.4358 34.5792 63.0824 33.7625C61.7408 32.9342 60.2124 32.52 58.4974 32.52C56.8991 32.52 55.4524 32.8992 54.1574 33.6575C52.8624 34.4158 51.8474 35.4658 51.1124 36.8075V20.9H48.5574V51H51.1124V47.22C51.8708 48.5733 52.9033 49.635 54.2099 50.405C55.5166 51.175 56.9633 51.56 58.5499 51.56ZM57.9199 49.3375C56.5783 49.3375 55.3883 49.0283 54.3499 48.41C53.3116 47.78 52.4949 46.9167 51.8999 45.82C51.3049 44.7233 51.0074 43.4692 51.0074 42.0575C51.0074 40.6342 51.3049 39.3742 51.8999 38.2775C52.4949 37.1692 53.3116 36.3058 54.3499 35.6875C55.3883 35.0575 56.5783 34.7425 57.9199 34.7425C59.2616 34.7425 60.4458 35.0575 61.4724 35.6875C62.5108 36.3058 63.3274 37.1692 63.9224 38.2775C64.5174 39.3742 64.8149 40.6342 64.8149 42.0575C64.8149 43.4575 64.5174 44.7058 63.9224 45.8025C63.3391 46.8992 62.5283 47.7625 61.4899 48.3925C60.4516 49.0225 59.2616 49.3375 57.9199 49.3375Z" fill="white"/>
</svg>
